<svg xmlns="http://www.w3.org/2000/svg" viewBox="0 0 233.32 233.32"><title>close</title><g id="Layer_2" data-name="Layer 2"><g id="Layer_1-2" data-name="Layer 1"><g id="close"><path d="M105.78,116.21C100.33,111,95,106,89.79,100.87c-8.05-7.94-16-16-24-24q-8.06-8.09-2.28-13.6Q69,58,76.71,65.6c11.74,11.73,37.75,38.46,40,41.29,4.92-5.43,8.81-10,13-14.28C138.37,83.72,147.23,75,156,66.19c5.75-5.74,10.27-6.6,14-2.69s2.76,8.13-2.71,13.61q-17.59,17.61-35.19,35.2c-1.32,1.32-2.58,2.7-4.84,5.07,4.85,4.45,9.67,8.63,14.22,13.08,8.76,8.57,17.36,17.3,26,26,5.37,5.37,6.12,9.92,2.28,13.6s-8.09,2.79-13.21-2.32c-11.74-11.73-37.57-38.63-39.23-41-6.13,6.27-11.08,11.39-16.1,16.44q-12.15,12.24-24.39,24.41c-5.35,5.34-10,6.09-13.61,2.26s-2.76-8.09,2.34-13.2q17.77-17.81,35.58-35.6C102.51,119.69,103.78,118.31,105.78,116.21Z" fill="#8c8c8c"/><path d="M116.66,233.32A116.66,116.66,0,1,1,233.32,116.66,116.79,116.79,0,0,1,116.66,233.32Zm0-221.32A104.66,104.66,0,1,0,221.32,116.66,104.78,104.78,0,0,0,116.66,12Z" fill="#8c8c8c"/></g></g></g></svg>